<svg xmlns="http://www.w3.org/2000/svg" viewBox="0 0 902.7 902.7"><defs><style>.cls-1{fill:#fff;}.cls-2{opacity:0.5;}.cls-3{fill:#55dfff;}.cls-4{fill:#00dbff;}.cls-5{fill:#512717;}.cls-6{fill:#371a45;}.cls-7{fill:#000072;}.cls-8{fill:#f883a0;}.cls-9{opacity:0.2;}.cls-10{fill:#fff8c4;}.cls-11{opacity:0.3;}.cls-12{fill:#fdc1e5;}.cls-13{opacity:0.35;}</style></defs><g id="Layer_2" data-name="Layer 2"><g id="Layer_1-2" data-name="Layer 1"><circle class="cls-1" cx="451.35" cy="451.35" r="451.35"/><g class="cls-2"><path class="cls-3" d="M695.63,686.15c-2.48,46.66-75.37,97.82-266.06,87.71s-257.76-68.7-255.29-115.35c.92-17.32,10.92-23.5,14.4-24.85,2.46,1.79,69.58,74,243.91,83.27s248.71-55.49,251.36-57C687.27,661.63,696.55,668.84,695.63,686.15Z"/></g><g class="cls-2"><path class="cls-4" d="M683.94,659.9h0c-2.89,1.72-77.3,66.24-251.34,57-174.34-9.25-241.46-81.49-243.92-83.29,0,0-50.15-56.23-66-147.28a319.19,319.19,0,0,1-2.09-96C144.45,204.54,288,118.92,463.81,128.24c91.55,4.85,171.71,34.39,228,88.07,51.86,49.37,83.57,119.16,85.51,208.91C780.56,572.31,683.94,659.9,683.94,659.9Z"/></g><g class="cls-2"><path class="cls-1" d="M135.32,502.64a319.18,319.18,0,0,1-2.09-96C157.08,220.82,300.67,135.2,476.44,144.52c91.56,4.85,171.71,34.39,228,88.08a263.81,263.81,0,0,1,20,21.31,263,263,0,0,0-32.66-37.6c-56.33-53.68-136.48-83.22-228-88.08C288,118.92,144.45,204.54,120.6,390.4a319.19,319.19,0,0,0,2.09,96c15.84,91,66,147.28,66,147.28s.26.22.51.45A333.17,333.17,0,0,1,135.32,502.64Z"/></g><polygon class="cls-5" points="447.09 602.67 446.37 602.74 446.38 602.53 447.09 602.67"/><polygon class="cls-5" points="447.8 602.61 447.79 602.82 447.09 602.67 447.8 602.61"/><path class="cls-6" d="M432.23,723.65c-155.54-8.25-229-66.71-247.84-84.43l-.6-.57a6.91,6.91,0,0,1-.83-.79c-3.63-4.06-88.59-101.25-69.71-248.31,11.55-89.94,52.14-162.13,117.38-208.74,61.1-43.65,141.86-64.16,233.53-59.3s169.81,33.79,226,83.66c59.95,53.25,92.68,129.32,94.65,220,3.16,145.55-88.15,232.7-95.27,239.26a7.18,7.18,0,0,1-1.2,1c-.16.11-.39.29-.69.52C667,681.55,587.67,731.89,432.23,723.65Zm-238-94.48.79.73c17.87,16.82,87.82,72.33,238,80.3s225.55-39.83,245.12-54.66l.81-.61C683.64,650.47,773,564.5,770,425.29,766.24,253.47,651.65,144.94,463.45,135S149.82,220.79,127.94,391.25C110.29,528.76,189.28,623.47,194.18,629.17Zm489.76,30.75h0Z"/><g class="cls-2"><path class="cls-1" d="M188.56,431.23c-31.84-3.22-31.24-36.72-28.47-67.51C166.92,287.75,237.15,180.4,344,178c92.74-2.12,61.71,63,37,85.65C333.11,307.45,242.06,436.64,188.56,431.23Z"/></g><g class="cls-2"><path class="cls-4" d="M695.63,686.15c-2.48,46.66-75.37,97.82-266.06,87.71s-257.76-68.7-255.29-115.35c.92-17.32,10.92-23.5,14.4-24.85,2.46,1.79,69.58,74,243.91,83.27s248.71-55.49,251.36-57C687.27,661.63,696.55,668.84,695.63,686.15Z"/></g><path class="cls-1" d="M467.23,253.39c-41.57-36.59-101.89-61.29-170.1-64.94C191.38,182.8,99,229.42,64.2,298.88c-6.46,12.87.55,28.4,14.32,32.6,42.11,12.83,91.48,18.7,144.57,15.57C323.68,341.12,413.55,304.32,467.23,253.39Z"/><path class="cls-7" d="M217.39,348.47C168,350.77,120,345.29,78.2,332.54a24.7,24.7,0,0,1-15.56-13.93,23.91,23.91,0,0,1,.57-20.22c36.09-72,130.13-116.6,234-111,66.37,3.55,127,26.71,170.78,65.22l.91.8-.88.84c-56,53.09-147.5,88.22-244.84,94C221.23,348.27,219.3,348.38,217.39,348.47Zm47.56-159c-89.84,4.2-167.81,46.23-199.76,109.94a21.73,21.73,0,0,0-.51,18.35,22.53,22.53,0,0,0,14.17,12.69C122.06,343.58,171.9,349,223,345.94c96.32-5.68,186.87-40.24,242.55-92.52-43.31-37.69-103.1-60.36-168.51-63.86C286.24,189,275.5,189,265,189.44Z"/><path class="cls-7" d="M217.7,355.12c-50.11,2.34-98.89-3.24-141.44-16.2a31.43,31.43,0,0,1-19.75-17.68,30.61,30.61,0,0,1,.74-25.84C94.52,221.09,191.09,175,297.55,180.69c67.86,3.63,129.94,27.37,174.82,66.87a7.76,7.76,0,0,1,.21,11.47c-57.07,54.15-150.17,90-249,95.78Q220.63,355,217.7,355.12Zm47.48-159c-87.43,4.08-163.15,44.7-194,106.27a14.91,14.91,0,0,0-.35,12.74,15.86,15.86,0,0,0,10,8.93c42.46,12.94,91.52,18.22,141.84,15.25,91.66-5.4,177.89-37.26,232.83-85.67-41.67-33.83-97.66-54.14-158.74-57.41Q280.76,195.37,265.18,196.1Z"/><path class="cls-8" d="M375.62,282.24c-27.82-16.16-67.84-27.48-112.79-29.88-69.69-3.73-129.91,15.08-152,44.37-4.09,5.43.71,12.16,9.83,14.13,27.88,6,60.46,9.13,95.38,8.45C282.2,318,340.91,303.38,375.62,282.24Z"/><path class="cls-7" d="M229.1,320q-6.48.3-13,.43c-33.79.66-66.86-2.27-95.63-8.48-5.75-1.24-10.23-4.44-11.68-8.34a7.72,7.72,0,0,1,1.19-7.54c23-30.47,84.43-48.48,152.94-44.81,43.75,2.34,84,13,113.29,30l1.62.94-1.6,1C342.44,303.74,288.16,317.23,229.1,320Zm1.46-66.65c-54.23,2.53-99.94,19-118.83,44.06a5.49,5.49,0,0,0-.89,5.42c1.19,3.21,5,5.87,10.07,6.95,28.6,6.17,61.49,9.08,95.12,8.43,62.7-1.24,121.33-14.64,157.4-35.93-28.86-16.31-68.06-26.53-110.66-28.81C251.81,252.88,241,252.85,230.56,253.34Z"/><g class="cls-9"><path class="cls-7" d="M415.84,284.39C388,268.23,348,256.91,303,254.51c-69.69-3.73-129.91,15.08-152,44.37-4.09,5.43.72,12.16,9.84,14.13,27.87,6,60.45,9.13,95.37,8.45C322.41,320.16,381.12,305.53,415.84,284.39Z"/></g><path class="cls-7" d="M229.31,325.6q-6.54.3-13.13.43c-34.22.67-67.73-2.3-96.92-8.6-7.73-1.66-13.62-6.1-15.76-11.88a13.3,13.3,0,0,1,2-12.87c24-31.89,87.42-50.8,157.72-47C307.82,248,348.94,259,379,276.43a6.72,6.72,0,0,1,.12,11.56C344.59,309,289.3,322.8,229.31,325.6ZM116.12,300.91c.27.68,2,2.52,6,3.37,28.19,6.08,60.63,9,93.83,8.3,56.74-1.12,110-12.26,145.58-30.2-26.92-13-62.24-21.34-99-23.31-65-3.47-125.13,13.68-146.26,41.71Z"/><path class="cls-1" d="M443.59,252.13c45.24-31.95,107.85-50.08,176.06-46.43,105.75,5.65,192.59,61.86,219.83,134.64,5,13.49-3.58,28.18-17.72,30.89-43.24,8.26-93,8.83-145.41.06C577,354.67,491.54,308.49,443.59,252.13Z"/><path class="cls-7" d="M770.44,378.29a448,448,0,0,1-94.27-5.9C580,356.3,492.73,311.61,442.75,252.85l-.79-.93,1-.7C490.56,217.6,553.34,201,619.71,204.59c103.85,5.55,192.59,60,220.81,135.37a24,24,0,0,1-1.6,20.17A24.75,24.75,0,0,1,822,372.32,365.87,365.87,0,0,1,770.44,378.29Zm-325.21-126C495,310.25,581.37,354.28,676.54,370.2c50.49,8.44,100.64,8.42,145-.06A22.5,22.5,0,0,0,837,359a21.76,21.76,0,0,0,1.46-18.31c-27.92-74.59-115.86-128.41-218.85-133.92C554.17,203.31,492.31,219.47,445.23,252.33Z"/><path class="cls-7" d="M770.76,384.94a454.72,454.72,0,0,1-95.69-6c-97.68-16.34-186.43-61.87-237.4-121.8a7.77,7.77,0,0,1,1.44-11.38c48.83-34.48,113.09-51.47,180.95-47.84,106.47,5.69,197.57,61.82,226.7,139.68a30.63,30.63,0,0,1-2,25.77,31.36,31.36,0,0,1-21.51,15.47A371.51,371.51,0,0,1,770.76,384.94ZM455.27,253.61c49.47,54,131.8,94.86,222.36,110,49.73,8.32,99.06,8.31,142.67,0a15.87,15.87,0,0,0,10.88-7.82,14.89,14.89,0,0,0,1-12.7c-27-72.15-112.57-124.24-213-129.61C558.15,210.19,500.31,224.42,455.27,253.61Z"/><path class="cls-8" d="M531.6,290.59C561,277.48,602,270.49,646.94,272.9c69.69,3.72,127.56,28.85,146.39,60.33,3.49,5.83-2,12-11.29,13-28.36,3-61.08,2.63-95.73-1.77C620.68,336.11,563.86,315.3,531.6,290.59Z"/><path class="cls-7" d="M762,348.86a444,444,0,0,1-75.78-3.3c-63.53-8.08-121.57-28.3-155.25-54.09l-1.48-1.14,1.71-.76c31-13.81,72.1-20.12,115.85-17.78,68.51,3.66,127.7,28.12,147.28,60.87a7.73,7.73,0,0,1,.39,7.62c-1.87,3.73-6.66,6.43-12.51,7.05C775.61,348,768.86,348.53,762,348.86Zm-228.17-58c33.59,25,90.45,44.61,152.67,52.52,33.36,4.23,66.38,4.84,95.48,1.76,5.1-.54,9.22-2.78,10.75-5.83a5.52,5.52,0,0,0-.3-5.49c-19.22-32.14-77.7-56.17-145.5-59.79C604.28,271.73,564.22,277.7,533.78,290.84Z"/><g class="cls-9"><path class="cls-7" d="M490.43,288.38c29.39-13.1,70.39-20.09,115.34-17.68,69.69,3.72,127.56,28.85,146.39,60.33,3.49,5.83-2,12-11.28,13-28.36,3-61.09,2.63-95.73-1.77C579.51,333.91,522.69,313.1,490.43,288.38Z"/></g><path class="cls-7" d="M762.22,354.47a449.16,449.16,0,0,1-76.75-3.34c-64.48-8.2-123.53-28.83-158-55.2a6.73,6.73,0,0,1,1.35-11.49c31.75-14.16,73.81-20.64,118.44-18.26,70.29,3.76,131.3,29.32,151.8,63.6a13.29,13.29,0,0,1,.59,13c-2.75,5.52-9.08,9.3-16.94,10.14Q772.76,354,762.22,354.47ZM545.63,292.23c33.51,21.63,85.23,38.4,141.53,45.55,32.94,4.19,65.5,4.79,94.18,1.76,4-.43,5.95-2.07,6.29-2.71a.93.93,0,0,0-.07-.15c-18-30.12-76-53.59-141-57.07C609.79,277.65,573.78,282.21,545.63,292.23Z"/><path class="cls-10" d="M728,549.23c-20.31,22-34.91-5.5-34.91-5.5a297,297,0,0,0-4.66-49.19S634,475.33,647.26,415.78v0c-57.77-4-58.54-63.36-58.54-63.36-72.6,11-78.24-38.64-78.24-38.64-10.87,7.66-26.71,15.14-48.46,17.46-23.21,2.48-40.27-6.47-51.88-16.72v0c-47.67,56.5-105.23,12.61-105.23,12.61C321.55,375.06,245,387.78,245,387.78c15.58,50.27-35.82,77.3-35.82,77.3,4.8,18-11.22,30.6-11.22,30.6a188.66,188.66,0,0,0-7.78,34.41,27.18,27.18,0,0,1-6.71.47c-16.05-.86-28.32-15.48-27.4-32.63a31.83,31.83,0,0,1,13.35-24.52A61.56,61.56,0,0,1,189,366a59.38,59.38,0,0,1,47.36-77.75s-5.3-33.9,16.42-56.47,45.38-20.27,45.38-20.27S308.6,173,339.33,163.83s56.46,8.06,56.46,8.06,28.33-23,61.3-20,54.37,25,54.37,25,79.69-20.22,96.67,51.75c0,0,71.16,10,53.11,78.19,0,0,72.91,10.18,44.9,85.24,0,0,56.3,42.13,13.9,99.37C720,491.42,744.43,531.38,728,549.23Z"/><g class="cls-11"><path class="cls-7" d="M731.27,471.53q-.59-3.11-1.24-6.27s-63.29-19.69-48.41-79.15v0c-67-4.48-68.45-63.89-68.45-63.89-84.12,10.39-82.62-33.58-82.62-33.58C518,296.18,488.7,302,463.48,304.1c-26.9,2.28-58.91-8.47-72.46-18.81-54.81,56.12-107.29,9.2-107.29,9.2,19.72,48.09-69,60.17-69,60.17,18.5,50.42-40.88,77-40.88,77,5.72,18.05-12.77,30.51-12.77,30.51-.29.82-.53,1.6-.81,2.41a62.21,62.21,0,0,0,9.12,8.8,31.65,31.65,0,0,0-13,21c3.21,12.51,13.59,22,26.41,22.66a26.66,26.66,0,0,0,6.7-.47,188.66,188.66,0,0,1,7.78-34.41s16-12.6,11.23-30.6c0,0,36.07-19,38.61-54.71a66.29,66.29,0,0,0-2.17-9.15s1.74-.28,4.62-.93l-2.58.55a65.51,65.51,0,0,0-2.66-13s56.63-9.42,61.88-42.56c-.36-1.51-.8-3.07-1.35-4.66,0,0,.6.45,1.7,1.2a38.9,38.9,0,0,0-2.33-14.64s57.56,43.89,105.23-12.6v0c11.61,10.24,28.67,19.19,51.88,16.71,21.76-2.32,37.6-9.8,48.46-17.45,0,0,5.64,49.64,78.24,38.63,0,0,.77,59.38,58.54,63.36v0a86.09,86.09,0,0,0-1.92,13.15c.85.09,1.67.2,2.55.26v0a85.37,85.37,0,0,0-2,14.46c5.64,37.83,42.52,50.86,42.52,50.86a304.94,304.94,0,0,1,4.59,45.13v0q.66,9.06.69,17.52s14.6,27.54,34.91,5.5c16.45-17.85-7.94-57.81-7.94-57.81A86.77,86.77,0,0,0,731.27,471.53Z"/></g><path class="cls-1" d="M608.79,228.71l-4.31,2.36c-26.82-43.49-87.21-28.17-87.21-28.17s-21.4-22-54.37-25-61.3,20-61.3,20-25.73-17.22-56.46-8.06-41.21,47.71-41.21,47.71-23.63-2.36-45.38,20.27c-9.3,9.67-13.65,21.48-15.55,31.75l-6.68-1.31s-5.3-33.9,16.42-56.47,45.38-20.27,45.38-20.27S308.6,173,339.33,163.83s56.46,8.06,56.46,8.06,28.33-23,61.3-20,54.37,25,54.37,25,79.69-20.22,96.67,51.75Z"/><path class="cls-7" d="M713.3,565.53a23.25,23.25,0,0,1-4-.16c-14.16-1.83-22.23-16.35-23.11-18a7.69,7.69,0,0,1-.9-3.61A286.22,286.22,0,0,0,681.44,500c-13-6.22-49.85-28.43-43.27-77.48-39-6.69-53.43-38.94-56.55-61.38-24.56,2.42-44.22-1.89-58.5-12.82a54.17,54.17,0,0,1-17.22-22.5,112.68,112.68,0,0,1-43.06,13.15A73.19,73.19,0,0,1,411,325.16c-35.43,36.83-75,26.49-96,16.69a39,39,0,0,1-5.58,18.6c-12,20.27-40.76,29.69-55,33.24,7,36.86-18.21,63.65-36.73,75.39,1.33,15.53-8.64,26.82-13,31a180.15,180.15,0,0,0-6.83,31,7.78,7.78,0,0,1-6.21,6.68,35.26,35.26,0,0,1-8.63.62c-20.31-1.09-35.9-19.4-34.75-40.81a40.34,40.34,0,0,1,9.55-24,69.31,69.31,0,0,1,21.71-112.24A67.21,67.21,0,0,1,228,282.08c-.43-12.24,1.25-37.07,19.12-55.65,17.28-18,35.84-21.86,45.35-22.58,4.46-12,17.38-39.35,44.62-47.47,26-7.76,48.6,1.31,58.16,6.27,9.71-6.66,34.32-21.05,62.51-18.52s48.44,17.72,56,24.31c11.31-2.1,42.8-5.91,68.72,9.81,15.55,9.44,26.27,24.12,31.91,43.69,10.51,2.45,34.3,10,47.84,30.44,8.94,13.47,11.71,29.77,8.26,48.55,11.14,3.11,30.85,11,41.92,29.56,9.5,15.94,10.43,35.82,2.78,59.15,13,12.09,48,51.72,14,102.23,6.6,12.25,21.25,44.4,4.45,62.63C727.24,561.5,720.39,565.2,713.3,565.53Zm-12.47-24c2,3,6.07,7.86,10.5,8.41,3.22.4,6.9-1.62,10.93-6h0c10.14-11-3.34-39.41-8.86-48.49a7.78,7.78,0,0,1,.39-8.68c37.19-50.2-10.29-87-12.33-88.52a7.82,7.82,0,0,1-2.61-8.94c7.79-20.87,7.88-38,.28-50.79-11.78-19.88-38.72-24-39-24a7.79,7.79,0,0,1-6.42-9.69c4.66-17.6,3.19-32.32-4.36-43.76-13.43-20.33-42.05-24.71-42.33-24.75a7.79,7.79,0,0,1-6.47-5.91c-4.2-17.82-13-30.89-26.12-38.85-26-15.78-60.72-7.23-61.07-7.14a7.78,7.78,0,0,1-7.48-2.12c-.19-.19-20-20-49.5-22.68-29.3-2.62-55.46,18.12-55.72,18.33a7.78,7.78,0,0,1-9.21.41c-.2-.13-23.23-15-49.91-7.07-26.28,7.84-35.83,42-35.92,42.31a7.79,7.79,0,0,1-8.28,5.69c-.77-.06-20.37-1.46-39,17.93S244,286.81,244,287.11a7.79,7.79,0,0,1-6.53,8.87,51.74,51.74,0,0,0-43.8,48.24,51,51,0,0,0,2.64,19.31,7.78,7.78,0,0,1-5,9.93,53.79,53.79,0,0,0-17.06,93.83,7.77,7.77,0,0,1-.35,12.5,24.18,24.18,0,0,0-10,18.56c-.67,12.66,8,23.5,19.55,24.41a204.53,204.53,0,0,1,7.17-29.45,7.78,7.78,0,0,1,2.6-3.75c.46-.36,11.91-9.77,8.52-22.48a7.77,7.77,0,0,1,3.9-8.88c1.84-1,45.44-24.75,32-68.11a7.77,7.77,0,0,1,6.15-10c11.12-1.87,42.21-10.48,52.38-27.63,4-6.71,4.45-14.18,1.45-22.81A7.77,7.77,0,0,1,309.62,321c2.1,1.58,52.23,38.49,94.41-11.24a7.68,7.68,0,0,1,3.06-2.35,7.76,7.76,0,0,1,8.2,1.31c13.22,11.66,28.66,16.65,45.9,14.81s32.27-7.25,44.81-16.08a7.77,7.77,0,0,1,12.2,5.48,37.69,37.69,0,0,0,14.61,23.25c12.37,9.32,30.79,12.2,54.74,8.57a7.77,7.77,0,0,1,8.94,7.59c0,2.11,1.53,52.27,51.31,55.7a7.79,7.79,0,0,1,7.22,8.28,9.9,9.9,0,0,1-.17,1.2c-11.64,52.22,34.2,69,36.15,69.74a7.74,7.74,0,0,1,5.07,6A309.81,309.81,0,0,1,700.83,541.54Z"/><path class="cls-1" d="M437.68,699.1c-129.2-6.91-262.24-49.54-247.5-169A188.66,188.66,0,0,1,198,495.68s16-12.6,11.22-30.6c0,0,51.4-27,35.82-77.3,0,0,76.55-12.72,59.91-60.65,0,0,57.56,43.89,105.23-12.61v0c11.61,10.25,28.67,19.2,51.88,16.72,21.75-2.32,37.59-9.8,48.46-17.46,0,0,5.64,49.65,78.24,38.64,0,0,.77,59.38,58.54,63.36v0c-13.27,59.55,41.15,78.76,41.15,78.76a297,297,0,0,1,4.66,49.19C693.82,686.44,565.18,705.91,437.68,699.1Z"/><path class="cls-7" d="M506.31,700.76c-20.9,1-43.75.78-68.69-.55-61.6-3.3-172.51-17.86-223.2-78.37-21.21-25.33-29.74-56.24-25.34-91.89a190.44,190.44,0,0,1,7.82-34.61l.1-.32.27-.22c.15-.12,15.39-12.37,10.84-29.43l-.23-.86.79-.41c.5-.27,50.39-27.21,35.27-76l-.37-1.21,1.25-.21c.43-.07,43.14-7.43,57-30.78,5-8.39,5.66-18,2-28.42L302.65,324l2.93,2.23a91.13,91.13,0,0,0,34.36,14.7c26.43,5.05,49.68-4,69.11-26.84l.08-2,1.75,1.51c14.68,13,31.86,18.48,51,16.45,18.33-2,34.46-7.77,47.94-17.26l1.53-1.08.21,1.86a44.8,44.8,0,0,0,17,27.63c13.86,10.59,34,14,60,10l1.26-.19,0,1.27c0,2.39,1.44,58.41,57.51,62.27l1.1.08-.1,1.3c-12.89,57.87,38.26,76.7,40.44,77.47l.62.22.11.64a300.21,300.21,0,0,1,4.67,49.37C694.42,589.93,680.9,626.36,654,652,622.91,681.63,575.2,697.54,506.31,700.76ZM437.74,698c106.44,5.69,174.67-9.43,214.72-47.59,26.45-25.21,39.74-61.1,39.5-106.66a297.11,297.11,0,0,0-4.53-48.39c-6-2.4-53.12-23.16-41.52-78.59-52.2-4.4-57.69-54.45-58.24-63.09-26,3.74-46.36.15-60.5-10.67a47,47,0,0,1-17.5-27.34c-13.49,9.13-29.47,14.73-47.53,16.65-19.45,2.08-36.89-3.38-51.87-16.23-17.49,20.32-36.35,27.4-53.24,28.19-23.48,1.1-43.17-9.95-50.12-14.43,2.73,9.92,1.66,19.06-3.18,27.21-13.2,22.23-49.93,30.21-57.3,31.61,13.5,46.41-29.61,73.31-36,77,3.92,16.74-9.45,28.9-11.55,30.69a189.27,189.27,0,0,0-7.64,33.9c-4.32,35,4,65.36,24.84,90.19C266.27,680.28,376.5,694.71,437.74,698Z"/><g class="cls-11"><path class="cls-7" d="M437.05,685.66c125.29,6.7,251.68-12,255.31-148.08l0-.2C672.7,647.53,555.86,663.1,439.93,656.9c-117.33-6.27-237.83-42-247.92-138-.74,3.8-1.38,7.55-1.83,11.21a147.27,147.27,0,0,0-1.11,17C198.75,643.49,319.49,679.37,437.05,685.66Z"/></g><path class="cls-7" d="M506.49,707.41c-21.12,1-44.14.79-69.23-.55-62.68-3.35-175.64-18.3-227.95-80.74-22.45-26.8-31.48-59.43-26.84-97a197.6,197.6,0,0,1,8.08-35.82,7.78,7.78,0,0,1,2.6-3.75c.46-.36,11.91-9.77,8.52-22.48a7.77,7.77,0,0,1,3.9-8.88c1.84-1,45.44-24.75,32-68.11a7.77,7.77,0,0,1,6.15-10c11.12-1.87,42.21-10.48,52.38-27.63,4-6.71,4.45-14.18,1.45-22.81A7.77,7.77,0,0,1,309.62,321c2.1,1.58,52.23,38.49,94.41-11.24a7.68,7.68,0,0,1,3.06-2.35,7.76,7.76,0,0,1,8.2,1.31c13.22,11.66,28.66,16.65,45.9,14.81s32.27-7.25,44.81-16.08a7.77,7.77,0,0,1,12.2,5.48,37.69,37.69,0,0,0,14.61,23.25c12.37,9.32,30.79,12.2,54.74,8.57a7.77,7.77,0,0,1,8.94,7.59c0,2.11,1.53,52.27,51.31,55.7a7.79,7.79,0,0,1,7.22,8.28,9.9,9.9,0,0,1-.17,1.2c-11.57,51.9,34.22,69,36.18,69.75a7.79,7.79,0,0,1,5,6,307,307,0,0,1,4.78,50.48c.25,48.1-14,86.17-42.26,113.13C626.3,687.6,577.16,704.11,506.49,707.41Zm-68.4-16.08c104.49,5.59,171.15-9,209.77-45.76,25.42-24.22,37.67-57.52,37.44-101.8a286.23,286.23,0,0,0-3.86-43.8c-13-6.22-49.85-28.43-43.27-77.48-39-6.69-53.43-38.94-56.55-61.38-24.58,2.42-44.22-1.89-58.5-12.82a54.17,54.17,0,0,1-17.22-22.5,112.68,112.68,0,0,1-43.06,13.15A73.19,73.19,0,0,1,411,325.16c-35.43,36.83-75,26.49-96,16.69a39,39,0,0,1-5.58,18.6c-12,20.27-40.76,29.69-55,33.24,7,36.86-18.21,63.65-36.73,75.39,1.33,15.53-8.64,26.82-13,31a179.94,179.94,0,0,0-6.83,31c-4.09,33.11,3.76,61.74,23.33,85.1,48.54,57.94,156.7,72,216.86,75.2Z"/><path class="cls-7" d="M190.58,537.85h-.7a7.74,7.74,0,1,1,.7,0Z"/><path class="cls-7" d="M655.77,423.72h-.23c-3.16,0-6.14,0-8.87-.23a7.77,7.77,0,1,1,1.18-15.5c2.24.17,4.74.23,7.41.18a7.78,7.78,0,0,1,.51,15.54Z"/><path class="cls-7" d="M506.6,308.26a20.47,20.47,0,0,1,4.79-4.43c1.77-1.24,3.68-2.33,5.64-3.45l6-3.44c2.07-1.16,4.17-2.39,6.43-3.61l.1-.05a1.07,1.07,0,0,1,1.56,1,27.68,27.68,0,0,1-1.93,7.77,41.9,41.9,0,0,1-3.59,6.95,32.14,32.14,0,0,1-4.82,6,18.86,18.86,0,0,1-6.4,4.19,7,7,0,0,1-8.05-10.6Z"/><path class="cls-7" d="M405.7,319.55a22.26,22.26,0,0,1-6.57-5.58,36.34,36.34,0,0,1-4.61-7.29,47.78,47.78,0,0,1-3.17-8,33.81,33.81,0,0,1-1.43-8.65,1,1,0,0,1,1-1.06,1,1,0,0,1,.65.21l.06,0c2.26,1.71,4.36,3.46,6.43,5.11l6,4.89c2,1.6,3.92,3.12,5.69,4.76a27.62,27.62,0,0,1,4.79,5.47l.26.42a6.9,6.9,0,0,1-9.14,9.69Z"/><ellipse class="cls-12" cx="300.06" cy="562.53" rx="23.55" ry="35.77" transform="translate(-277.69 832.12) rotate(-86.94)"/><ellipse class="cls-12" cx="591.59" cy="578.12" rx="23.55" ry="35.77" transform="translate(-17.3 1137.99) rotate(-86.94)"/><path class="cls-6" d="M429.22,780.58c-197.86-10.49-265-72.53-262.33-122.47,1.21-22.68,15.9-29.52,18.83-30.65a8,8,0,0,1,7.54.95c.23.17.82.66,1.71,1.5,17.87,16.83,87.82,72.34,238,80.3s225.56-39.83,245.13-54.67a19.81,19.81,0,0,1,1.89-1.33,8,8,0,0,1,7.58-.15c2.79,1.44,16.67,9.78,15.46,32.48C700.37,736.48,627.07,791.07,429.22,780.58ZM187.94,642.46c-2.64,2.6-5.8,7.54-6.27,16.44-2.5,47.19,73.29,99,248.26,108.23S685.74,733,688.24,685.76c.47-8.9-2.14-14.14-4.49-17-25.54,18.07-104.45,62.71-251.52,54.91S211.42,663.15,187.94,642.46Z"/><ellipse class="cls-7" cx="558.96" cy="469.37" rx="32.74" ry="28.3" transform="translate(88.37 1027.3) rotate(-89.88)"/><ellipse class="cls-7" cx="334.89" cy="443.36" rx="32.74" ry="28.3" transform="translate(-109.19 777.28) rotate(-89.88)"/><ellipse class="cls-1" cx="348.75" cy="440.75" rx="12.5" ry="8.13" transform="translate(-171.76 652.81) rotate(-73.81)"/><g class="cls-13"><ellipse class="cls-1" cx="321.87" cy="455.98" rx="6.09" ry="10.55" transform="translate(-160.85 175.81) rotate(-24.65)"/></g><g class="cls-13"><path class="cls-1" d="M574.21,488.06c2.92-5.05,2.92-10.5,0-12.18s-7.64,1.05-10.55,6.09-2.92,10.51,0,12.19S571.3,493.11,574.21,488.06Z"/></g><ellipse class="cls-1" cx="546.75" cy="467.26" rx="8.75" ry="13.44" transform="translate(-57.99 77.96) rotate(-7.75)"/><path class="cls-7" d="M288,409c3.11-13.65,19.82-18.84,32.24-16.16a52.4,52.4,0,0,1,8.35,2.27l3.9,1.7a35.93,35.93,0,0,1,3.79,1.86c13.89,7.46,25.63,18.56,36.08,30,4.19,4.63,10.32,1.33,14.11-2.26a35.85,35.85,0,0,1,6.84-4.46,12.08,12.08,0,0,1-2.14,8.7c-3.76,5.07-10.86,8.83-17.32,7.24a16.57,16.57,0,0,1-8.43-5.27A209.16,209.16,0,0,0,341.94,412a89.53,89.53,0,0,0-16.3-9.6c-4.42-1.73-9.25-3.17-14-3.11l-3.49.22-3.4.78c-6.11,2.08-10,5.64-16.79,8.66Z"/><path class="cls-7" d="M334.48,480.5c-.56,0-1.11,0-1.67-.05-8.84-.5-16.9-4.9-22.69-12.41a40.88,40.88,0,0,1,2.92-52A30.7,30.7,0,0,1,337,406.26c8.85.5,16.91,4.9,22.69,12.41a40.86,40.86,0,0,1-2.91,52A30.85,30.85,0,0,1,334.48,480.5Zm.85-65.46a22.14,22.14,0,0,0-15.95,7.15,32.07,32.07,0,0,0-2.27,40.47,21.28,21.28,0,0,0,33.3,1.86,30.83,30.83,0,0,0,8.34-19.83h0a30.92,30.92,0,0,0-6.07-20.64,22,22,0,0,0-16.2-9C336.1,415.05,335.72,415,335.33,415Z"/><path class="cls-7" d="M607.81,437.76c-5.66-1.54-8.26-4.38-12.57-7.28-1.31-.58-2.57-1.32-3.89-1.83l-3.27-1-3.4-.42c-4.66-.34-9.5.81-14,2.19-16.36,6.15-29.88,17.36-43.06,28.78a14.63,14.63,0,0,1-17.27,1.43c-5.37-3.19-10.07-8.39-8.45-15.09,6.75,2.94,9.42,10.88,17.11,9.75,1.91-.35,3.46-1.89,4.78-3.21a164.12,164.12,0,0,1,25.25-20.74c13.07-8.38,29.79-15.33,45.19-9a35.11,35.11,0,0,1,5.92,3.33c4.43,3,7.92,7.21,7.63,13Z"/><path class="cls-7" d="M558.94,506.52h-.07c-18,0-32.67-16.74-32.63-37.22S541,432.22,559,432.22H559c18,0,32.67,16.74,32.63,37.22a39.72,39.72,0,0,1-9.42,26C576.05,502.59,567.78,506.52,558.94,506.52ZM559,441c-13.15,0-23.87,12.67-23.91,28.28h0c0,15.62,10.66,28.35,23.83,28.38h.05a22,22,0,0,0,16.65-8,30.9,30.9,0,0,0,7.26-20.25c0-15.62-10.66-28.35-23.83-28.38Z"/><path class="cls-7" d="M452,558.84l-1.28,23.82,0,.42a7.12,7.12,0,0,1-4.51,6.24l-18.56,7.25a36.55,36.55,0,0,1-23.25.7,37,37,0,0,1-5.41-2.12,38.89,38.89,0,0,1-4.87-2.9,57.8,57.8,0,0,1-8.25-6.85,41.06,41.06,0,0,1-10.92-18.57,3.41,3.41,0,0,1,6.5-2.06l0,0a33.27,33.27,0,0,0,10.47,14,48.58,48.58,0,0,0,7.49,4.91,27.56,27.56,0,0,0,3.81,1.73,26.84,26.84,0,0,0,3.91,1,24.24,24.24,0,0,0,15.33-2.19l17.27-9.07-4.53,6.66L436.42,558a7.78,7.78,0,0,1,15.53.83Z"/><path class="cls-7" d="M452,558.84l-1.28,23.82-3.79-7.1,16.2,10.86a24.29,24.29,0,0,0,15,3.81,26,26,0,0,0,4-.62,27.86,27.86,0,0,0,4-1.31,48.79,48.79,0,0,0,8-4.09,33.33,33.33,0,0,0,11.89-12.75l0,0a3.42,3.42,0,0,1,6.25,2.75,41.28,41.28,0,0,1-12.84,17.3,58.48,58.48,0,0,1-8.94,5.93,39.37,39.37,0,0,1-5.15,2.36,37.07,37.07,0,0,1-5.6,1.53,36.54,36.54,0,0,1-23-3.18l-17.69-9.19a7.1,7.1,0,0,1-3.82-6.68l0-.42L436.42,558a7.78,7.78,0,0,1,15.53.83Z"/><path class="cls-7" d="M444.54,566.2a7.76,7.76,0,0,1-4.23-1l-19-10.91c-29.94-.85-31.51-16.65-31.51-19.87A13.55,13.55,0,0,1,403,520.61c10.12-.07,20.8,13,25.82,20l19.23,11.05a7.78,7.78,0,0,1-3.52,14.51Z"/><path class="cls-7" d="M444.55,566.2a7.78,7.78,0,0,1-3.5-14.89l20.29-8.93c5.75-6.47,17.76-18.31,27.82-17.16a13.55,13.55,0,0,1,11.65,15.1c-.34,3.21-3.6,18.75-33.45,16.4l-20,8.82A7.89,7.89,0,0,1,444.55,566.2Z"/></g></g></svg>